# AST/ASF file generated using VICON BodyLanguage
# -----------------------------------------------
:version 1.10
:name VICON
:units
  mass 1.0
  length 0.45
  angle deg
:documentation
   .ast/.asf automatically generated from VICON data using
   VICON BodyBuilder and BodyLanguage model FoxedUp or BRILLIANT.MOD
:root
   order TX TY TZ RX RY RZ
   axis XYZ
   position 0 0 0  
   orientation 0 0 0 
:bonedata
  begin
     id 1 
     name lhipjoint
     direction 0.671379 -0.66392 0.329334 
     length 2.38647 
     axis 0 0 0  XYZ
  end
  begin
     id 2 
     name lfemur
     direction 0.34202 -0.939693 0  
     length 6.48179  
     axis 0 0 20  XYZ
    dof rx ry rz
    limits (-160.0 20.0)
           (-70.0 70.0)
           (-60.0 70.0)
  end
  begin
     id 3 
     name ltibia
     direction 0.34202 -0.939693 0   
     length 6.86524   
     axis 0 0 20   XYZ
    dof rx
    limits (-10.0 170.0)
  end
  begin
     id 4 
     name lfoot
     direction 0.204886 -0.562919 0.800715   
     length 1.73031   
     axis -90 7.62852e-016 20   XYZ
    dof rx rz
    limits (-45.0 90.0)
           (-70.0 20.0)
  end
  begin
     id 5 
     name ltoes
     direction 1.53548e-011 -4.21841e-011 1   
     length 0.828161   
     axis -90 7.62852e-016 20   XYZ
    dof rx
    limits (-90.0 20.0)
  end
  begin
     id 6 
     name rhipjoint
     direction -0.662732 -0.670855 0.332775   
     length 2.3618  
     axis 0 0 0  XYZ 
  end
  begin
     id 7 
     name rfemur
     direction -0.34202 -0.939693 0   
     length 6.3025   
     axis 0 0 -20   XYZ
    dof rx ry rz
    limits (-160.0 20.0)
           (-70.0 70.0)
           (-70.0 60.0)
  end
  begin
     id 8 
     name rtibia
     direction -0.34202 -0.939693 0   
     length 6.8732   
     axis 0 0 -20   XYZ
    dof rx
    limits (-10.0 170.0)
 end
 begin
     id 9 
     name rfoot
     direction -0.173856 -0.477665 0.861168   
     length 1.54784  
     axis -90 -7.62852e-016 -20   XYZ
    dof rx rz
    limits (-45.0 90.0)
           (-20.0 70.0)
  end
  begin
     id 10 
     name rtoes
     direction -1.53562e-011 -4.21802e-011 1   
     length 0.759618   
     axis -90 -7.62852e-016 -20   XYZ
    dof rx
    limits (-90.0 20.0)
  end
  begin
     id 11 
     name lowerback
     direction -0.0278357 0.999497 -0.0151789   
     length 1.97203   
     axis 0 0 0   XYZ
    dof rx ry rz
    limits (-20.0 45.0)
           (-30.0 30.0)
           (-30.0 30.0)
  end
  begin
     id 12 
     name upperback
     direction -0.00360622 0.997542 0.0699804   
     length 1.94709   
     axis 0 0 0   XYZ
    dof rx ry rz
    limits (-20.0 45.0)
           (-30.0 30.0)
           (-30.0 30.0)
  end
  begin
     id 13 
     name thorax
     direction 0.00907706 0.997048 0.0762461   
     length 1.95722   
     axis 0 0 0   XYZ
    dof rx ry rz
    limits (-20.0 45.0)
           (-30.0 30.0)
           (-30.0 30.0)
  end
  begin
     id 14 
     name lowerneck
     direction -0.0481835 0.99872 -0.0153927   
     length 1.63078   
     axis 0 0 0   XYZ
    dof rx ry rz
    limits (-20.0 45.0)
           (-30.0 30.0)
           (-30.0 30.0)
  end
  begin
     id 15 
     name upperneck
     direction 0.0859716 0.979226 -0.183644   
     length 1.62591   
     axis 0 0 0   XYZ
    dof rx ry rz
    limits (-20.0 45.0)
           (-30.0 30.0)
           (-30.0 30.0)
  end
  begin
     id 16
     name head
     direction 0.0324821 0.997629 -0.0606773  
     length 1.64811  
     axis 0 0 0   XYZ
    dof rx ry rz
    limits (-20.0 45.0)
           (-30.0 30.0)
           (-30.0 30.0)
  end
  begin
     id 17 
     name lclavicle
     direction 0.939609 0.311019 0.142835  
     length 3.70647  
     axis 0 0 0   XYZ
    dof ry rz
    limits (-20.0 10.0)
           (0.0 20.0)
  end
  begin
     id 18 
     name lhumerus
     direction 1 -4.48963e-011 -1.59838e-027   
     length 4.59207   
     axis 180 -30 -90   XYZ
    dof rx ry rz
    limits (-60.0 90.0)
           (-90.0 90.0)
           (-90.0 90.0)
  end
  begin
     id 19
     name lradius
     direction 1 -4.48957e-011 -1.3483e-026   
     length 2.98109   
     axis 180 -30 -90   XYZ
    dof rx
    limits (-10.0 170.0)
  end
  begin
     id 20
     name lwrist
     direction 1 -4.48954e-011 -3.11579e-026   
     length 1.49055   
     axis 2.00652e-014 90 90   XYZ
    dof ry
    limits (-180.0 0.0)
 end
  begin
     id 21 
     name lhand
     direction 1 -4.4911e-011 -6.23158e-026   
     length 0.480203   
     axis 3.97628e-014 90 90   XYZ
    dof rx rz
    limits (-90.0 90.0)
           (-45.0 45.0)
  end
  begin
     id 22 
     name lfingers
     direction 1 -4.48893e-011 -1.24632e-025   
     length 0.387152   
     axis 7.95256e-014 90 90   XYZ
    dof rx
    limits (0.0 90.0)
  end
  begin
     id 23
     name lthumb
     direction 0.707107 -6.35013e-011 0.707107   
     length 0.555875   
     axis -90 45 2.85299e-015   XYZ
    dof rx rz
    limits (-45.0 45.0)
           (-45.0 45.0)
  end
  begin
     id 24 
     name rclavicle
     direction -0.950396 0.30392 0.0661859   
     length 3.70894  
     axis 0 0 0   XYZ 
    dof ry rz
    limits (-10.0 20.0)
           (-20.0 0.0)
  end
  begin
     id 25 
     name rhumerus
     direction -1 -4.48957e-011 -2.96677e-027  
     length 4.76508   
     axis 180 30 90   XYZ
    dof rx ry rz
    limits (-90.0 60.0)
           (-90.0 90.0)
           (-90.0 90.0)
  end
  begin
     id 26 
     name rradius
     direction -1 -4.48974e-011 -1.44501e-026   
     length 2.78902   
     axis 180 30 90   XYZ
    dof rx
    limits (-10.0 170.0)
  end
  begin
     id 27 
     name rwrist
     direction -1 -4.48978e-011 -3.11579e-026   
     length 1.39451   
     axis 2.00652e-014 -90 -90   XYZ
    dof ry
    limits (-180.0 0.0)
  end
  begin
     id 28
     name rhand
     direction -1 -4.48956e-011 -6.23158e-026   
     length 0.721303   
     axis 3.97628e-014 -90 -90   XYZ
    dof rx rz
    limits (-90.0 90.0)
           (-45.0 45.0)
  end
  begin
     id 29
     name rfingers
     direction -1 -4.4899e-011 -1.24632e-025   
     length 0.581533   
     axis 7.95256e-014 -90 -90   XYZ
    dof rx
    limits (0.0 90.0)
  end
  begin
     id 30
     name rthumb
     direction -0.707107 -6.34911e-011 0.707107   
     length 0.834968   
     axis -90 -45 -2.85299e-015   XYZ
    dof rx rz
    limits (-45.0 45.0)
           (-45.0 45.0)
  end
:hierarchy
  begin
    root lhipjoint rhipjoint lowerback
    lhipjoint lfemur
    lfemur ltibia
    ltibia lfoot
    lfoot ltoes
    rhipjoint rfemur
    rfemur rtibia
    rtibia rfoot
    rfoot rtoes
    lowerback upperback
    upperback thorax
    thorax lowerneck lclavicle rclavicle
    lowerneck upperneck
    upperneck head
    lclavicle lhumerus
    lhumerus lradius
    lradius lwrist
    lwrist lhand lthumb
    lhand lfingers
    rclavicle rhumerus
    rhumerus rradius
    rradius rwrist
    rwrist rhand rthumb
    rhand rfingers
  end

#!OML:ASF I:\salsa\salsa 7_09\Patient 1\Session 1\dancerfemale.ASF
:FULLY-SPECIFIED
:DEGREES
886
root -2.26908 15.8951 -1.04211 15.0362 400.768 727.537
lowerback 5.18056 9.63118 4.094
upperback -12.3244 12.9685 -11.3028
thorax -12.9551 5.26271 -17.1612
lowerneck 2.09401 -0.657412 -1.93276
upperneck 10.0877 -1.61284 12.4456
head 2.73099 -0.368716 4.07157
rclavicle -5.20816e-014 2.38542e-014
rhumerus -38.9726 -5.31642 -103.644
rradius 60.9572
rwrist 43.7367
rhand -8.07473 628.342
rfingers 7.12502
rthumb 17.8369 422.456
lclavicle -5.20816e-014 2.38542e-014
lhumerus -37.0194 11.4155 55.9412
lradius 113.757
lwrist 23.117
lhand -22.417 53.9058
lfingers 7.12502
lthumb 4.00605 83.8478
rfemur -12.7441 3.74924 -1.32449
rtibia 24.7731
rfoot -11.6164 -20.2204
rtoes -7.35265
lfemur -39.5131 -33.4996 0.643881
ltibia 44.9169
lfoot -17.3493 -4.09442
ltoes -13.3686
887
root -2.67115 16.0022 -0.879033 15.0613 406.024 726.339
lowerback 4.09855 9.32457 5.31353
upperback -11.8159 12.7111 -11.1945
thorax -11.5335 5.22329 -17.2639
lowerneck 1.38168 -1.29447 -3.41902
upperneck 9.88638 -2.5377 13.4796
head 2.88 -0.830179 4.62026
rclavicle 5.20816e-014 3.65764e-014
rhumerus -36.4166 -3.98914 -104.112
rradius 61.2446
rwrist 41.7327
rhand -7.22145 449.908
rfingers 7.12502
rthumb 18.6578 420.783
lclavicle 5.20816e-014 3.65764e-014
lhumerus -39.3137 11.714 56.8671
lradius 113.917
lwrist 22.0335
lhand -25.6505 56.8507
lfingers 7.12502
lthumb 0.883257 86.8286
rfemur -9.83291 0.432659 2.78773
rtibia 21.0012
rfoot -14.6519 -21.9512
rtoes -6.62183
lfemur -41.1841 -31.5916 2.21953
ltibia 45.6687
lfoot -16.0839 0.828995
ltoes -11.3507
888
root -3.04344 16.0843 -0.707466 14.4005 410.883 724.825
lowerback 3.20083 9.04127 6.43389
upperback -11.3673 12.4447 -10.9706
thorax -10.3786 5.15648 -17.2797
lowerneck 1.4605 -1.92632 -3.90161
upperneck 9.07963 -3.34167 13.8837
head 2.7111 -1.26659 4.80345
rclavicle -7.39479e-014 6.36111e-015
rhumerus -34.1661 -2.53632 -104.562
rradius 61.9168
rwrist 39.4523
rhand -6.55883 448.751
rfingers 7.12502
rthumb 19.2951 419.688
lclavicle -7.39479e-014 6.36111e-015
lhumerus -42.6161 11.7304 57.2464
lradius 113.807
lwrist 20.7079
lhand -27.9253 60.3467
lfingers 7.12502
lthumb -1.31376 -90.3224
rfemur -6.18318 -1.62479 7.1412
rtibia 15.2675
rfoot -15.8076 -25.9178
rtoes -6.30485
lfemur -41.9339 -29.1835 2.68073
ltibia 46.8273
lfoot -16.3658 4.47177
ltoes -7.39492
889
root -3.39603 16.1452 -0.563792 12.0335 415.535 722.249
lowerback 3.20032 8.6911 8.19618
upperback -10.8255 12.159 -10.525
thorax -9.61506 4.97657 -17.6392
lowerneck 1.69938 -2.52305 -4.1281
upperneck 8.27642 -4.08873 14.2205
head 2.5138 -1.6732 4.92727
rclavicle -3.37934e-014 -4.77083e-015
rhumerus -32.188 -0.892816 -104.984
rradius 63.2564
rwrist 36.8592
rhand -6.20177 447.227
rfingers 7.12502
rthumb 19.6384 418.199
lclavicle -3.37934e-014 -4.77083e-015
lhumerus -46.1085 11.9975 57.276
lradius 113.196
lwrist 18.61
lhand -29.8347 63.5421
lfingers 7.12502
lthumb -3.15786 -93.4985
rfemur 0.0894739 -4.04536 11.5099
rtibia 5.44086
rfoot -14.9212 -28.139
rtoes -5.89177
lfemur -41.6336 -26.3617 2.49827
ltibia 48.5088
lfoot -17.4375 6.51936
ltoes -11.1796
890
root -3.7333 16.17 -0.45299 7.57003 419.877 718.225
lowerback 4.10938 8.27588 10.6044
upperback -10.1794 11.9035 -9.88121
thorax -9.21791 4.71993 -18.3616
lowerneck 1.67861 -3.10025 -4.49634
upperneck 7.8434 -4.8542 14.7364
head 2.48243 -2.06212 5.12972
rclavicle 2.28602e-014 2.70347e-014
rhumerus -30.3335 0.707557 -105.356
rradius 65.2058
rwrist 34.1675
rhand -6.08672 445.373
rfingers 7.12502
rthumb 19.749 416.357
lclavicle 2.28602e-014 2.70347e-014
lhumerus -49.704 12.542 57.0214
lradius 112.018
lwrist 15.871
lhand -31.1285 66.2476
lfingers 7.12502
lthumb -4.40722 -96.1817
rfemur 4.54907 -6.33294 15.2685
rtibia -1.11319e-014
rfoot -15.7112 -28.8649
rtoes -5.24786
lfemur -40.9256 -23.745 2.40165
ltibia 50.8378
lfoot -16.9778 6.26379
ltoes -9.91235
891
root -4.05717 16.1888 -0.362992 3.12132 423.753 713.737
lowerback 4.36114 7.94968 12.644
upperback -9.76684 11.7021 -9.36313
thorax -8.74303 4.53874 -18.923
lowerneck 1.49454 -3.72073 -4.69519
upperneck 7.68618 -5.69333 15.0064
head 2.56473 -2.47173 5.22003
rclavicle 6.55989e-014 0
rhumerus -28.535 1.64028 -105.374
rradius 67.7626
rwrist 32.0252
rhand -6.00697 443.981
rfingers 7.12502
rthumb 19.8257 414.973
lclavicle 6.55989e-014 0
lhumerus -53.0721 13.4513 56.3533
lradius 110.011
lwrist 11.909
lhand -31.715 68.8374
lfingers 7.12502
lthumb -4.97357 -98.759
rfemur 4.92353 -8.44293 18.6385
rtibia -1.59028e-015
rfoot -16.078 -28.2994
rtoes -5.57813
lfemur -41.0499 -21.5298 2.41318
ltibia 53.4522
lfoot -14.6171 5.81781
ltoes 1.68104
892
root -4.36503 16.2239 -0.288266 -1.33968 427.16 708.773
lowerback 4.00492 7.7615 14.2462
upperback -9.60862 11.5826 -8.92345
thorax -8.24192 4.43981 -19.2311
lowerneck 1.33755 -4.32631 -5.08103
upperneck 7.63217 -6.52815 15.3336
head 2.68395 -2.87927 5.35679
rclavicle 8.05078e-014 7.63333e-014
rhumerus -26.9209 1.69247 -105.23
rradius 70.8818
rwrist 30.6513
rhand -5.93575 443.007
rfingers 7.12502
rthumb 19.8941 414.005
lclavicle 8.05078e-014 7.63333e-014
lhumerus -56.4999 14.7409 55.1949
lradius 107.186
lwrist 6.30373
lhand -31.5648 71.8179
lfingers 7.12502
lthumb -4.82853 -101.743
rfemur 4.2465 -10.2818 21.5248
rtibia -4.45278e-014
rfoot -13.7864 -26.6914
rtoes -7.6005
lfemur -41.4862 -19.2508 2.1979
ltibia 55.9705
lfoot -13.9583 6.11183
ltoes 4.6803
893
root -4.65016 16.2504 -0.213252 -3.64899 429.822 706.436
lowerback 3.78952 7.74726 14.2715
upperback -9.42806 11.5346 -8.74162
thorax -7.95638 4.47098 -18.9405
lowerneck 1.40287 -4.86591 -5.4822
upperneck 7.31166 -7.24544 15.6517
head 2.68098 -3.25051 5.49981
rclavicle -9.76033e-014 2.54444e-014
rhumerus -25.1228 1.19633 -105.08
rradius 74.1479
rwrist 29.6711
rhand -5.96595 442.014
rfingers 7.12502
rthumb 19.8651 413.01
lclavicle -9.76033e-014 2.54444e-014
lhumerus -59.8371 15.7112 53.6677
lradius 104.155
lwrist -0.513703
lhand -30.4308 75.0016
lfingers 7.12502
lthumb -3.73346 -104.949
rfemur 3.66613 -11.4384 22.9159
rtibia -3.18055e-015
rfoot -14.4498 -26.5411
rtoes -7.62102
lfemur -40.8269 -17.4362 0.365102
ltibia 58.1806
lfoot -15.5587 6.98702
ltoes -1.23462
894
root -4.91205 16.2704 -0.137594 -2.40353 431.984 708.049
lowerback 3.69087 7.84707 12.7554
upperback -9.17274 11.4937 -8.84561
thorax -7.82613 4.59864 -18.0979
lowerneck 1.62161 -5.36232 -5.5971
upperneck 6.70482 -7.85866 15.7028
head 2.54139 -3.59053 5.51895
rclavicle -1.23048e-013 -1.11319e-014
rhumerus -22.9129 0.397533 -104.919
rradius 77.5029
rwrist 28.778
rhand -6.03332 440.923
rfingers 7.12502
rthumb 19.8003 411.912
lclavicle -1.23048e-013 -1.11319e-014
lhumerus -63.0891 16.5229 51.7458
lradius 100.992
lwrist -8.80764
lhand -27.8564 78.2424
lfingers 7.12502
lthumb -1.24726 -108.219
rfemur 3.23544 -12.0331 22.8066
rtibia -1.27222e-014
rfoot -14.8403 -27.1887
rtoes -8.28749
lfemur -39.1879 -16.4211 -2.8613
ltibia 60.0592
lfoot -17.5051 8.63135
ltoes -4.97836
895
root -5.17315 16.2613 -0.0745601 -0.416698 434.022 710.626
lowerback 3.8352 7.87731 11.1288
upperback -8.77052 11.3698 -8.92724
thorax -7.7324 4.68579 -17.2038
lowerneck 1.7911 -5.81849 -5.66888
upperneck 6.00543 -8.40474 15.6858
head 2.37239 -3.90133 5.51267
rclavicle 7.71285e-014 -1.74931e-014
rhumerus -19.9856 -1.03517 -104.513
rradius 80.4704
rwrist 28.5479
rhand -6.32022 439.567
rfingers 7.12502
rthumb 19.5245 410.528
lclavicle 7.71285e-014 -1.74931e-014
lhumerus -66.0069 17.3848 49.5187
lradius 97.6712
lwrist -18.7998
lhand -23.645 80.258
lfingers 7.12502
lthumb 2.8202 -110.219
rfemur 3.05489 -12.5212 22.3848
rtibia -3.18055e-015
rfoot -16.0315 -27.8047
rtoes -8.85256
lfemur -37.1 -14.666 -6.28869
ltibia 61.7891
lfoot -18.8809 9.40542
ltoes -7.55065
896
root -5.44131 16.2287 -0.023711 -4.828 435.729 705.961
lowerback 3.5249 7.97176 11.476
upperback -8.6358 11.5008 -8.51269
thorax -7.37462 4.78392 -16.807
lowerneck 1.99359 -6.20394 -5.87574
upperneck 5.28183 -8.86008 15.8072
head 2.19284 -4.16881 5.57863
rclavicle 2.98177e-015 -7.95139e-015
rhumerus -16.743 -3.28888 -104.256
rradius 83.4338
rwrist 29.2771
rhand -6.7088 437.937
rfingers 7.12502
rthumb 19.1509 408.86
lclavicle 2.98177e-015 -7.95139e-015
lhumerus -68.843 18.411 46.7559
lradius 94.5939
lwrist -29.1488
lhand -17.0456 81.242
lfingers 7.12502
lthumb 9.19131 -111.022
rfemur 2.12368 -12.7113 24.2734
rtibia -1.43125e-014
rfoot -16.8134 -28.4379
rtoes -8.8871
lfemur -35.8842 -11.6406 -7.05573
ltibia 63.5552
lfoot -19.6325 9.28742
ltoes -10.4413
